<mxfile host="app.diagrams.net" agent="Mozilla/5.0 (X11; Linux x86_64; rv:133.0) Gecko/20100101 Firefox/133.0" version="25.0.3">
  <diagram name="Page-1" id="4U5YkGCh9nd2_-qvNMEP">
    <mxGraphModel dx="1434" dy="790" grid="1" gridSize="10" guides="1" tooltips="1" connect="1" arrows="1" fold="1" page="1" pageScale="1" pageWidth="850" pageHeight="1100" math="0" shadow="0">
      <root>
        <mxCell id="0" />
        <mxCell id="1" parent="0" />
        <mxCell id="Hle4S8Di1_Md17zHJ1X8-1" value="W&lt;sub&gt;1j&lt;/sub&gt;" style="ellipse;whiteSpace=wrap;html=1;aspect=fixed;fontSize=15;fillColor=#f8cecc;strokeColor=#b85450;fontStyle=1" vertex="1" parent="1">
          <mxGeometry x="230" y="220" width="60" height="60" as="geometry" />
        </mxCell>
        <mxCell id="Hle4S8Di1_Md17zHJ1X8-2" value="W&lt;sub&gt;2j&lt;/sub&gt;" style="ellipse;whiteSpace=wrap;html=1;aspect=fixed;fontSize=15;fillColor=#f8cecc;strokeColor=#b85450;fontStyle=1" vertex="1" parent="1">
          <mxGeometry x="230" y="310" width="60" height="60" as="geometry" />
        </mxCell>
        <mxCell id="Hle4S8Di1_Md17zHJ1X8-3" value="W&lt;sub&gt;3j&lt;/sub&gt;" style="ellipse;whiteSpace=wrap;html=1;aspect=fixed;fontSize=15;fillColor=#f8cecc;strokeColor=#b85450;fontStyle=1" vertex="1" parent="1">
          <mxGeometry x="230" y="400" width="60" height="60" as="geometry" />
        </mxCell>
        <mxCell id="Hle4S8Di1_Md17zHJ1X8-4" value="W&lt;sub&gt;4j&lt;/sub&gt;" style="ellipse;whiteSpace=wrap;html=1;aspect=fixed;fontSize=15;fillColor=#f8cecc;strokeColor=#b85450;fontStyle=1" vertex="1" parent="1">
          <mxGeometry x="230" y="540" width="60" height="60" as="geometry" />
        </mxCell>
        <mxCell id="Hle4S8Di1_Md17zHJ1X8-21" value="" style="edgeStyle=orthogonalEdgeStyle;rounded=0;orthogonalLoop=1;jettySize=auto;html=1;fontStyle=1" edge="1" parent="1" source="Hle4S8Di1_Md17zHJ1X8-5" target="Hle4S8Di1_Md17zHJ1X8-20">
          <mxGeometry relative="1" as="geometry" />
        </mxCell>
        <mxCell id="Hle4S8Di1_Md17zHJ1X8-5" value="&lt;font style=&quot;font-size: 24px;&quot;&gt;Σ&lt;/font&gt;" style="ellipse;whiteSpace=wrap;html=1;aspect=fixed;fillColor=#f5f5f5;fontColor=#333333;strokeColor=#666666;fontStyle=1" vertex="1" parent="1">
          <mxGeometry x="440" y="400" width="60" height="60" as="geometry" />
        </mxCell>
        <mxCell id="Hle4S8Di1_Md17zHJ1X8-6" value="" style="endArrow=classic;html=1;rounded=0;exitX=1;exitY=0.5;exitDx=0;exitDy=0;fontStyle=1" edge="1" parent="1" source="Hle4S8Di1_Md17zHJ1X8-1" target="Hle4S8Di1_Md17zHJ1X8-5">
          <mxGeometry width="50" height="50" relative="1" as="geometry">
            <mxPoint x="350" y="340" as="sourcePoint" />
            <mxPoint x="470" y="340" as="targetPoint" />
          </mxGeometry>
        </mxCell>
        <mxCell id="Hle4S8Di1_Md17zHJ1X8-7" value="" style="endArrow=classic;html=1;rounded=0;exitX=1;exitY=0.5;exitDx=0;exitDy=0;fontStyle=1" edge="1" parent="1" source="Hle4S8Di1_Md17zHJ1X8-2" target="Hle4S8Di1_Md17zHJ1X8-5">
          <mxGeometry width="50" height="50" relative="1" as="geometry">
            <mxPoint x="300" y="260" as="sourcePoint" />
            <mxPoint x="420" y="400" as="targetPoint" />
          </mxGeometry>
        </mxCell>
        <mxCell id="Hle4S8Di1_Md17zHJ1X8-8" value="" style="endArrow=classic;html=1;rounded=0;exitX=1;exitY=0.5;exitDx=0;exitDy=0;entryX=0;entryY=0.5;entryDx=0;entryDy=0;fontStyle=1" edge="1" parent="1" source="Hle4S8Di1_Md17zHJ1X8-3" target="Hle4S8Di1_Md17zHJ1X8-5">
          <mxGeometry width="50" height="50" relative="1" as="geometry">
            <mxPoint x="300" y="350" as="sourcePoint" />
            <mxPoint x="451" y="430" as="targetPoint" />
          </mxGeometry>
        </mxCell>
        <mxCell id="Hle4S8Di1_Md17zHJ1X8-9" value="" style="endArrow=classic;html=1;rounded=0;exitX=1;exitY=0.5;exitDx=0;exitDy=0;fontStyle=1" edge="1" parent="1" source="Hle4S8Di1_Md17zHJ1X8-4" target="Hle4S8Di1_Md17zHJ1X8-5">
          <mxGeometry width="50" height="50" relative="1" as="geometry">
            <mxPoint x="310" y="500" as="sourcePoint" />
            <mxPoint x="460" y="500" as="targetPoint" />
          </mxGeometry>
        </mxCell>
        <mxCell id="Hle4S8Di1_Md17zHJ1X8-10" value="" style="endArrow=none;dashed=1;html=1;dashPattern=1 3;strokeWidth=4;rounded=0;fontSize=15;fontStyle=1" edge="1" parent="1">
          <mxGeometry width="50" height="50" relative="1" as="geometry">
            <mxPoint x="260" y="530" as="sourcePoint" />
            <mxPoint x="259.5" y="470" as="targetPoint" />
          </mxGeometry>
        </mxCell>
        <mxCell id="Hle4S8Di1_Md17zHJ1X8-15" value="" style="edgeStyle=orthogonalEdgeStyle;rounded=0;orthogonalLoop=1;jettySize=auto;html=1;fontStyle=1" edge="1" parent="1" source="Hle4S8Di1_Md17zHJ1X8-11" target="Hle4S8Di1_Md17zHJ1X8-1">
          <mxGeometry relative="1" as="geometry" />
        </mxCell>
        <mxCell id="Hle4S8Di1_Md17zHJ1X8-11" value="x&lt;sub&gt;1&lt;/sub&gt;" style="text;html=1;align=center;verticalAlign=middle;whiteSpace=wrap;rounded=0;fontSize=15;fontStyle=0" vertex="1" parent="1">
          <mxGeometry x="120" y="235" width="60" height="30" as="geometry" />
        </mxCell>
        <mxCell id="Hle4S8Di1_Md17zHJ1X8-16" value="" style="edgeStyle=orthogonalEdgeStyle;rounded=0;orthogonalLoop=1;jettySize=auto;html=1;fontStyle=1" edge="1" parent="1" source="Hle4S8Di1_Md17zHJ1X8-12" target="Hle4S8Di1_Md17zHJ1X8-2">
          <mxGeometry relative="1" as="geometry" />
        </mxCell>
        <mxCell id="Hle4S8Di1_Md17zHJ1X8-12" value="x&lt;sub&gt;2&lt;/sub&gt;" style="text;html=1;align=center;verticalAlign=middle;whiteSpace=wrap;rounded=0;fontSize=15;fontStyle=0" vertex="1" parent="1">
          <mxGeometry x="120" y="325" width="60" height="30" as="geometry" />
        </mxCell>
        <mxCell id="Hle4S8Di1_Md17zHJ1X8-17" value="" style="edgeStyle=orthogonalEdgeStyle;rounded=0;orthogonalLoop=1;jettySize=auto;html=1;fontStyle=1" edge="1" parent="1" source="Hle4S8Di1_Md17zHJ1X8-13" target="Hle4S8Di1_Md17zHJ1X8-3">
          <mxGeometry relative="1" as="geometry" />
        </mxCell>
        <mxCell id="Hle4S8Di1_Md17zHJ1X8-13" value="x&lt;sub&gt;3&lt;/sub&gt;" style="text;html=1;align=center;verticalAlign=middle;whiteSpace=wrap;rounded=0;fontSize=15;fontStyle=0" vertex="1" parent="1">
          <mxGeometry x="120" y="415" width="60" height="30" as="geometry" />
        </mxCell>
        <mxCell id="Hle4S8Di1_Md17zHJ1X8-18" value="" style="edgeStyle=orthogonalEdgeStyle;rounded=0;orthogonalLoop=1;jettySize=auto;html=1;fontStyle=1" edge="1" parent="1" source="Hle4S8Di1_Md17zHJ1X8-14" target="Hle4S8Di1_Md17zHJ1X8-4">
          <mxGeometry relative="1" as="geometry" />
        </mxCell>
        <mxCell id="Hle4S8Di1_Md17zHJ1X8-14" value="x&lt;sub&gt;n&lt;/sub&gt;" style="text;html=1;align=center;verticalAlign=middle;whiteSpace=wrap;rounded=0;fontSize=15;fontStyle=0" vertex="1" parent="1">
          <mxGeometry x="120" y="555" width="60" height="30" as="geometry" />
        </mxCell>
        <mxCell id="Hle4S8Di1_Md17zHJ1X8-25" value="" style="edgeStyle=orthogonalEdgeStyle;rounded=0;orthogonalLoop=1;jettySize=auto;html=1;fontStyle=1" edge="1" parent="1" source="Hle4S8Di1_Md17zHJ1X8-20" target="Hle4S8Di1_Md17zHJ1X8-24">
          <mxGeometry relative="1" as="geometry" />
        </mxCell>
        <mxCell id="Hle4S8Di1_Md17zHJ1X8-20" value="&lt;font style=&quot;font-size: 25px;&quot;&gt;φ&lt;/font&gt;" style="whiteSpace=wrap;html=1;aspect=fixed;fillColor=#f8cecc;strokeColor=#b85450;fontStyle=1" vertex="1" parent="1">
          <mxGeometry x="580" y="390" width="80" height="80" as="geometry" />
        </mxCell>
        <mxCell id="Hle4S8Di1_Md17zHJ1X8-22" value="Activation Function" style="text;html=1;align=center;verticalAlign=middle;whiteSpace=wrap;rounded=0;fontSize=15;fontStyle=0" vertex="1" parent="1">
          <mxGeometry x="580" y="490" width="80" height="30" as="geometry" />
        </mxCell>
        <mxCell id="Hle4S8Di1_Md17zHJ1X8-24" value="O&lt;sub&gt;j&lt;/sub&gt;" style="text;html=1;align=center;verticalAlign=middle;whiteSpace=wrap;rounded=0;fontSize=15;fontStyle=0" vertex="1" parent="1">
          <mxGeometry x="730" y="415" width="60" height="30" as="geometry" />
        </mxCell>
        <mxCell id="Hle4S8Di1_Md17zHJ1X8-27" value="Activation" style="text;html=1;align=center;verticalAlign=middle;whiteSpace=wrap;rounded=0;fontSize=15;fontStyle=0" vertex="1" parent="1">
          <mxGeometry x="720" y="480" width="80" height="30" as="geometry" />
        </mxCell>
        <mxCell id="Hle4S8Di1_Md17zHJ1X8-29" value="Bias" style="ellipse;whiteSpace=wrap;html=1;aspect=fixed;fontSize=15;fillColor=#f8cecc;strokeColor=#b85450;fontStyle=1" vertex="1" parent="1">
          <mxGeometry x="230" y="640" width="60" height="60" as="geometry" />
        </mxCell>
        <mxCell id="Hle4S8Di1_Md17zHJ1X8-30" value="" style="endArrow=classic;html=1;rounded=0;exitX=1;exitY=0.5;exitDx=0;exitDy=0;fontStyle=1" edge="1" parent="1" source="Hle4S8Di1_Md17zHJ1X8-29" target="Hle4S8Di1_Md17zHJ1X8-5">
          <mxGeometry width="50" height="50" relative="1" as="geometry">
            <mxPoint x="320" y="632" as="sourcePoint" />
            <mxPoint x="476" y="510" as="targetPoint" />
          </mxGeometry>
        </mxCell>
        <mxCell id="Hle4S8Di1_Md17zHJ1X8-31" value="Transfer Function" style="text;html=1;align=center;verticalAlign=middle;whiteSpace=wrap;rounded=0;fontSize=15;fontStyle=0" vertex="1" parent="1">
          <mxGeometry x="425" y="340" width="90" height="30" as="geometry" />
        </mxCell>
      </root>
    </mxGraphModel>
  </diagram>
</mxfile>
